<?xml version="1.0" encoding="UTF-8" standalone="no"?>
<!DOCTYPE svg PUBLIC "-//W3C//DTD SVG 1.1//EN" "http://www.w3.org/Graphics/SVG/1.1/DTD/svg11.dtd">
<!-- 由 Microsoft Visio, SVG Export 生成 graph.svg Page-1 -->
<svg xmlns="http://www.w3.org/2000/svg" xmlns:xlink="http://www.w3.org/1999/xlink" xmlns:ev="http://www.w3.org/2001/xml-events"
		xmlns:v="http://schemas.microsoft.com/visio/2003/SVGExtensions/" width="5.50902in" height="4.29249in"
		viewBox="0 0 396.65 309.059" xml:space="preserve" color-interpolation-filters="sRGB" class="st8">
	<v:documentProperties v:langID="2052" v:metric="true" v:viewMarkup="false">
		<v:userDefs>
			<v:ud v:nameU="msvNoAutoConnect" v:val="VT0(1):26"/>
		</v:userDefs>
	</v:documentProperties>

	<style type="text/css">
	<![CDATA[
		.st1 {fill:#262626;stroke:#000000;stroke-linecap:round;stroke-linejoin:round;stroke-width:1.5}
		.st2 {fill:#ffffff;font-family:宋体;font-size:3em}
		.st3 {fill:#ffffff;stroke:#000000;stroke-linecap:round;stroke-linejoin:round;stroke-width:1.5}
		.st4 {fill:#000000;font-family:宋体;font-size:3em}
		.st5 {stroke:#000000;stroke-linecap:round;stroke-linejoin:round;stroke-width:1.5}
		.st6 {fill:#ffffff;stroke:none;stroke-linecap:butt;stroke-width:7.2}
		.st7 {fill:#000000;font-family:宋体;font-size:1.99999em}
		.st8 {fill:none;fill-rule:evenodd;font-size:12px;overflow:visible;stroke-linecap:square;stroke-miterlimit:3}
	]]>
	</style>

	<g v:mID="0" v:index="1" v:groupContext="foregroundPage">
		<title>页-1</title>
		<v:pageProperties v:drawingScale="0.0393701" v:pageScale="0.0393701" v:drawingUnits="24" v:shadowOffsetX="8.50394"
				v:shadowOffsetY="-8.50394"/>
		<v:layer v:name="连接线" v:index="0"/>
		<g id="group16-1" transform="translate(18.75,-18.75)" v:mID="16" v:groupContext="group">
			<title>工作表.16</title>
			<g id="shape1-2" v:mID="1" v:groupContext="shape" transform="translate(109.984,-113.386)">
				<title>圆形</title>
				<desc>2</desc>
				<v:userDefs>
					<v:ud v:nameU="visVersion" v:val="VT0(15):26"/>
				</v:userDefs>
				<v:textBlock v:margins="rect(4,4,4,4)" v:tabSpace="42.5197"/>
				<v:textRect cx="22.3937" cy="286.665" width="39.19" height="33.5906"/>
				<path d="M0 286.67 A22.3937 22.3937 0 0 1 44.79 286.67 A22.3937 22.3937 0 1 1 0 286.67 Z" class="st1"/>
				<text x="13.39" y="297.47" class="st2" v:langID="2052"><v:paragraph v:horizAlign="1"/><v:tabList/>2</text>			</g>
			<g id="shape2-5" v:mID="2" v:groupContext="shape" transform="translate(109.984,-226.772)">
				<title>圆形.2</title>
				<desc>4</desc>
				<v:userDefs>
					<v:ud v:nameU="visVersion" v:val="VT0(15):26"/>
				</v:userDefs>
				<v:textBlock v:margins="rect(4,4,4,4)" v:tabSpace="42.5197"/>
				<v:textRect cx="22.3937" cy="286.665" width="39.19" height="33.5906"/>
				<path d="M0 286.67 A22.3937 22.3937 0 0 1 44.79 286.67 A22.3937 22.3937 0 1 1 0 286.67 Z" class="st1"/>
				<text x="13.39" y="297.47" class="st2" v:langID="2052"><v:paragraph v:horizAlign="1"/><v:tabList/>4</text>			</g>
			<g id="shape3-8" v:mID="3" v:groupContext="shape" transform="translate(109.984,5.68434E-14)">
				<title>圆形.3</title>
				<desc>1</desc>
				<v:userDefs>
					<v:ud v:nameU="visVersion" v:val="VT0(15):26"/>
				</v:userDefs>
				<v:textBlock v:margins="rect(4,4,4,4)" v:tabSpace="42.5197"/>
				<v:textRect cx="22.3937" cy="286.665" width="39.19" height="33.5906"/>
				<path d="M0 286.67 A22.3937 22.3937 0 0 1 44.79 286.67 A22.3937 22.3937 0 1 1 0 286.67 Z" class="st1"/>
				<text x="13.39" y="297.47" class="st2" v:langID="2052"><v:paragraph v:horizAlign="1"/><v:tabList/>1</text>			</g>
			<g id="shape4-11" v:mID="4" v:groupContext="shape" transform="translate(209.197,-50.7402)">
				<title>圆形.4</title>
				<desc>3</desc>
				<v:userDefs>
					<v:ud v:nameU="visVersion" v:val="VT0(15):26"/>
				</v:userDefs>
				<v:textBlock v:margins="rect(4,4,4,4)" v:tabSpace="42.5197"/>
				<v:textRect cx="22.3937" cy="286.665" width="39.19" height="33.5906"/>
				<path d="M0 286.67 A22.3937 22.3937 0 0 1 44.79 286.67 A22.3937 22.3937 0 1 1 0 286.67 Z" class="st3"/>
				<text x="13.39" y="297.47" class="st4" v:langID="2052"><v:paragraph v:horizAlign="1"/><v:tabList/>3</text>			</g>
			<g id="shape5-14" v:mID="5" v:groupContext="shape" transform="translate(314.362,-50.7402)">
				<title>圆形.5</title>
				<desc>6</desc>
				<v:userDefs>
					<v:ud v:nameU="visVersion" v:val="VT0(15):26"/>
				</v:userDefs>
				<v:textBlock v:margins="rect(4,4,4,4)" v:tabSpace="42.5197"/>
				<v:textRect cx="22.3937" cy="286.665" width="39.19" height="33.5906"/>
				<path d="M0 286.67 A22.3937 22.3937 0 0 1 44.79 286.67 A22.3937 22.3937 0 1 1 0 286.67 Z" class="st3"/>
				<text x="13.39" y="297.47" class="st4" v:langID="2052"><v:paragraph v:horizAlign="1"/><v:tabList/>6</text>			</g>
			<g id="shape6-17" v:mID="6" v:groupContext="shape" transform="translate(0,-113.386)">
				<title>圆形.6</title>
				<desc>5</desc>
				<v:userDefs>
					<v:ud v:nameU="visVersion" v:val="VT0(15):26"/>
				</v:userDefs>
				<v:textBlock v:margins="rect(4,4,4,4)" v:tabSpace="42.5197"/>
				<v:textRect cx="22.3937" cy="286.665" width="39.19" height="33.5906"/>
				<path d="M0 286.67 A22.3937 22.3937 0 0 1 44.79 286.67 A22.3937 22.3937 0 1 1 0 286.67 Z" class="st3"/>
				<text x="13.39" y="297.47" class="st4" v:langID="2052"><v:paragraph v:horizAlign="1"/><v:tabList/>5</text>			</g>
			<g id="shape7-20" v:mID="7" v:groupContext="shape" v:layerMember="0" transform="translate(125.291,-226.772)">
				<title>动态连接线</title>
				<desc>0.2</desc>
				<v:textBlock v:margins="rect(4,4,4,4)" v:tabSpace="42.5197"/>
				<v:textRect cx="7.08661" cy="343.358" width="120.01" height="36.8035"/>
				<path d="M7.09 309.06 L7.09 377.66" class="st5"/>
				<rect v:rectContext="textBkgnd" x="-10.9135" y="328.959" width="36.0003" height="28.7998" class="st6"/>
				<text x="-10.91" y="350.56" class="st7" v:langID="2052"><v:paragraph v:horizAlign="1"/><v:tabList/>0.2</text>			</g>
			<g id="shape8-25" v:mID="8" v:groupContext="shape" v:layerMember="0" transform="translate(154.772,-135.78)">
				<title>动态连接线.8</title>
				<desc>0.5</desc>
				<v:textBlock v:margins="rect(4,4,4,4)" v:tabSpace="42.5197"/>
				<v:textRect cx="30.491" cy="332.463" width="120.01" height="36.8035"/>
				<path d="M0 309.06 L60.98 355.87" class="st5"/>
				<rect v:rectContext="textBkgnd" x="12.4909" y="318.064" width="36.0003" height="28.7998" class="st6"/>
				<text x="12.49" y="339.66" class="st7" v:langID="2052"><v:paragraph v:horizAlign="1"/><v:tabList/>0.5</text>			</g>
			<g id="shape9-30" v:mID="9" v:groupContext="shape" v:layerMember="0" transform="translate(215.754,-57.297)">
				<title>动态连接线.9</title>
				<desc>0.6</desc>
				<v:textBlock v:margins="rect(4,4,4,4)" v:tabSpace="42.5197"/>
				<v:textRect cx="-30.491" cy="326.511" width="120.01" height="36.8035"/>
				<path d="M0 309.06 L-60.98 343.96" class="st5"/>
				<rect v:rectContext="textBkgnd" x="-48.4911" y="312.111" width="36.0003" height="28.7998" class="st6"/>
				<text x="-48.49" y="333.71" class="st7" v:langID="2052"><v:paragraph v:horizAlign="1"/><v:tabList/>0.6</text>			</g>
			<g id="shape10-35" v:mID="10" v:groupContext="shape" v:layerMember="0" transform="translate(253.984,-66.0472)">
				<title>动态连接线.10</title>
				<desc>0.4</desc>
				<v:textBlock v:margins="rect(4,4,4,4)" v:tabSpace="42.5197"/>
				<v:textRect cx="30.189" cy="301.972" width="120.01" height="36.8035"/>
				<path d="M0 301.97 L60.38 301.97" class="st5"/>
				<rect v:rectContext="textBkgnd" x="12.1889" y="287.573" width="36.0003" height="28.7998" class="st6"/>
				<text x="12.19" y="309.17" class="st7" v:langID="2052"><v:paragraph v:horizAlign="1"/><v:tabList/>0.4</text>			</g>
			<g id="shape11-40" v:mID="11" v:groupContext="shape" v:layerMember="0" transform="translate(109.984,-128.693)">
				<title>动态连接线.11</title>
				<desc>0.9</desc>
				<v:textBlock v:margins="rect(4,4,4,4)" v:tabSpace="42.5197"/>
				<v:textRect cx="-32.5984" cy="301.972" width="120.01" height="36.8035"/>
				<path d="M0 301.97 L-65.2 301.97" class="st5"/>
				<rect v:rectContext="textBkgnd" x="-50.5985" y="287.573" width="36.0003" height="28.7998" class="st6"/>
				<text x="-50.6" y="309.17" class="st7" v:langID="2052"><v:paragraph v:horizAlign="1"/><v:tabList/>0.9</text>			</g>
			<g id="shape12-45" v:mID="12" v:groupContext="shape" v:layerMember="0" transform="translate(125.291,-113.386)">
				<title>动态连接线.12</title>
				<desc>0.7</desc>
				<v:textBlock v:margins="rect(4,4,4,4)" v:tabSpace="42.5197"/>
				<v:textRect cx="7.08661" cy="343.358" width="120.01" height="36.8035"/>
				<path d="M7.09 309.06 L7.09 377.66" class="st5"/>
				<rect v:rectContext="textBkgnd" x="-10.9135" y="328.959" width="36.0003" height="28.7998" class="st6"/>
				<text x="-10.91" y="350.56" class="st7" v:langID="2052"><v:paragraph v:horizAlign="1"/><v:tabList/>0.7</text>			</g>
		</g>
	</g>
</svg>
